<?xml version="1.0" encoding="UTF-8"?>
<!DOCTYPE svg PUBLIC "-//W3C//DTD SVG 1.1//EN" "http://www.w3.org/Graphics/SVG/1.1/DTD/svg11.dtd">
<!-- Creator: CorelDRAW 2019 (64-Bit) -->
<svg xmlns="http://www.w3.org/2000/svg" xml:space="preserve" width="27.94mm" height="21.59mm" version="1.1" style="shape-rendering:geometricPrecision; text-rendering:geometricPrecision; image-rendering:optimizeQuality; fill-rule:evenodd; clip-rule:evenodd"
viewBox="0 0 2794 2159"
 xmlns:xlink="http://www.w3.org/1999/xlink">
 <defs>
  <style type="text/css">
   <![CDATA[
    .fil0 {fill:#18531C;fill-rule:nonzero}
   ]]>
  </style>
 </defs>
 <g id="Capa_x0020_1">
  <metadata id="CorelCorpID_0Corel-Layer"/>
  <polygon class="fil0" points="634.63,1357.18 521.91,1357.18 521.91,1122.76 302.11,1122.76 302.11,1357.18 189.39,1357.18 189.39,810.12 302.11,810.12 302.11,1031.84 521.91,1031.84 521.91,810.12 634.63,810.12 "/>
  <path id="1" class="fil0" d="M935.48 1156.87l-89.77 0 0 200.31 -112.72 0 0 -547.06 203.26 0c31.54,0 59.88,3.59 84.89,10.77 25.01,7.18 46.17,17.69 63.48,31.54 17.31,13.85 30.52,31.17 39.88,51.68 9.23,20.52 13.85,44.25 13.85,71.3 0,20.14 -2.31,38.09 -6.8,53.99 -4.48,15.9 -11.02,30.01 -19.49,42.45 -8.59,12.44 -18.85,23.21 -30.78,32.44 -12.05,9.37 -25.64,17.32 -40.65,24.11l118.37 223.52 0 5.26 -120.93 0 -102.59 -200.31zm-89.77 -91.18l90.92 0c14.75,0 27.7,-2.05 38.86,-5.89 11.15,-3.85 20.39,-9.37 27.83,-16.55 7.3,-7.05 12.95,-15.64 16.67,-25.52 3.72,-9.87 5.64,-21.03 5.64,-33.21 0,-25.78 -7.31,-46.17 -21.93,-60.91 -14.75,-14.75 -37.19,-22.19 -67.45,-22.19l-90.54 0 0 164.27z"/>
  <polygon id="2" class="fil0" points="1418.93,1221.5 1542.94,810.12 1668.36,810.12 1477.92,1357.18 1360.33,1357.18 1170.66,810.12 1295.7,810.12 "/>
  <path id="3" class="fil0" d="M2003.57 1213.68c0,-9.49 -1.41,-18.08 -4.1,-25.77 -2.82,-7.57 -8.08,-14.75 -16.03,-21.16 -7.82,-6.54 -18.72,-12.96 -32.7,-19.24 -13.85,-6.28 -31.81,-12.82 -53.86,-19.88 -25.14,-8.08 -48.73,-17.05 -70.92,-27.05 -22.06,-10.01 -41.55,-21.81 -58.22,-35.53 -16.54,-13.59 -29.75,-29.36 -39.37,-47.19 -9.62,-17.7 -14.49,-38.47 -14.49,-62.32 0,-22.83 5,-43.6 14.88,-62.58 9.87,-18.85 23.72,-35.01 41.67,-48.22 17.96,-13.34 39.25,-23.6 63.87,-31.03 24.62,-7.31 51.81,-11.03 81.3,-11.03 30.39,0 57.84,4.1 82.71,12.56 24.75,8.34 45.91,20.14 63.48,35.14 17.57,15.01 31.04,32.83 40.53,53.48 9.61,20.64 14.36,43.34 14.36,67.84l-112.72 0c0,-11.55 -1.8,-22.19 -5.52,-31.94 -3.59,-9.74 -9.23,-18.21 -16.67,-25.13 -7.56,-7.05 -16.93,-12.44 -28.21,-16.41 -11.29,-3.85 -24.49,-5.78 -39.75,-5.78 -14.88,0 -27.7,1.67 -38.6,4.88 -10.9,3.2 -19.88,7.82 -27.06,13.59 -7.06,5.64 -12.44,12.44 -16.16,20.26 -3.59,7.7 -5.39,16.03 -5.39,24.75 0,18.08 9.24,33.09 27.57,45.27 18.47,12.18 45.4,23.47 81.05,33.98 29.75,9.36 56.04,19.62 78.61,30.78 22.7,11.29 41.68,24.11 56.81,38.34 15.13,14.37 26.55,30.4 34.37,48.09 7.69,17.83 11.67,37.96 11.67,60.53 0,23.98 -4.75,45.4 -14.11,64.25 -9.36,18.72 -22.7,34.62 -40.01,47.58 -17.31,12.82 -38.21,22.69 -62.58,29.62 -24.36,6.92 -51.68,10.39 -81.69,10.39 -18.08,0 -36.03,-1.67 -54.11,-4.75 -18.08,-3.08 -35.27,-7.95 -51.68,-14.49 -16.42,-6.54 -31.68,-14.62 -45.66,-24.36 -13.97,-9.75 -26.16,-21.29 -36.67,-34.63 -10.39,-13.21 -18.47,-28.34 -24.37,-45.27 -5.9,-16.92 -8.85,-35.65 -8.85,-56.17l113.11 0c0,16.55 2.69,30.52 7.95,42.07 5.26,11.54 12.57,20.9 21.93,28.08 9.36,7.05 20.77,12.31 33.98,15.52 13.34,3.33 28.09,4.87 44.37,4.87 14.49,0 27.19,-1.54 37.96,-4.62 10.77,-3.2 19.62,-7.56 26.68,-12.95 6.92,-5.51 12.18,-12.18 15.51,-19.75 3.46,-7.69 5.13,-15.9 5.13,-24.62z"/>
  <polygon id="4" class="fil0" points="2604.62,901.42 2437.01,901.42 2437.01,1357.18 2324.29,1357.18 2324.29,901.42 2158.99,901.42 2158.99,810.12 2604.62,810.12 "/>
 </g>
</svg>
