<?xml version="1.0" encoding="UTF-8"?>
<!DOCTYPE svg PUBLIC "-//W3C//DTD SVG 1.1//EN" "http://www.w3.org/Graphics/SVG/1.1/DTD/svg11.dtd">
<!-- Creator: CorelDRAW 2019 (64-Bit) -->
<svg xmlns="http://www.w3.org/2000/svg" xml:space="preserve" width="27.94mm" height="21.59mm" version="1.1" style="shape-rendering:geometricPrecision; text-rendering:geometricPrecision; image-rendering:optimizeQuality; fill-rule:evenodd; clip-rule:evenodd"
viewBox="0 0 2794 2159"
 xmlns:xlink="http://www.w3.org/1999/xlink">
 <defs>
  <style type="text/css">
   <![CDATA[
    .fil1 {fill:#99D985;fill-rule:nonzero}
    .fil0 {fill:white;fill-rule:nonzero}
   ]]>
  </style>
 </defs>
 <g id="Capa_x0020_1">
  <metadata id="CorelCorpID_0Corel-Layer"/>
  <g id="_1842289069696">
   <polygon class="fil0" points="662.07,870.6 549.35,870.6 549.35,636.18 329.55,636.18 329.55,870.6 216.83,870.6 216.83,323.54 329.55,323.54 329.55,545.26 549.35,545.26 549.35,323.54 662.07,323.54 "/>
   <path id="1" class="fil0" d="M962.92 670.29l-89.77 0 0 200.31 -112.72 0 0 -547.06 203.26 0c31.54,0 59.88,3.59 84.89,10.77 25.01,7.18 46.17,17.69 63.48,31.54 17.31,13.85 30.52,31.17 39.88,51.68 9.23,20.52 13.85,44.25 13.85,71.3 0,20.14 -2.31,38.09 -6.8,53.99 -4.48,15.9 -11.02,30.01 -19.49,42.45 -8.59,12.44 -18.85,23.21 -30.78,32.44 -12.05,9.37 -25.64,17.32 -40.65,24.11l118.37 223.52 0 5.26 -120.93 0 -102.59 -200.31zm-89.77 -91.18l90.92 0c14.75,0 27.7,-2.05 38.86,-5.89 11.15,-3.85 20.39,-9.37 27.83,-16.55 7.3,-7.05 12.95,-15.64 16.67,-25.52 3.72,-9.87 5.64,-21.03 5.64,-33.21 0,-25.78 -7.31,-46.17 -21.93,-60.91 -14.75,-14.75 -37.19,-22.19 -67.45,-22.19l-90.54 0 0 164.27z"/>
   <polygon id="2" class="fil0" points="1446.37,734.92 1570.38,323.54 1695.8,323.54 1505.36,870.6 1387.77,870.6 1198.1,323.54 1323.14,323.54 "/>
   <path id="3" class="fil0" d="M2031.01 727.1c0,-9.49 -1.41,-18.08 -4.1,-25.77 -2.82,-7.57 -8.08,-14.75 -16.03,-21.16 -7.82,-6.54 -18.72,-12.96 -32.7,-19.24 -13.85,-6.28 -31.81,-12.82 -53.86,-19.88 -25.14,-8.08 -48.73,-17.05 -70.92,-27.05 -22.06,-10.01 -41.55,-21.81 -58.22,-35.53 -16.54,-13.59 -29.75,-29.36 -39.37,-47.19 -9.62,-17.7 -14.49,-38.47 -14.49,-62.32 0,-22.83 5,-43.6 14.88,-62.58 9.87,-18.85 23.72,-35.01 41.67,-48.22 17.96,-13.34 39.25,-23.6 63.87,-31.03 24.62,-7.31 51.81,-11.03 81.3,-11.03 30.39,0 57.84,4.1 82.71,12.56 24.75,8.34 45.91,20.14 63.48,35.14 17.57,15.01 31.04,32.83 40.53,53.48 9.61,20.64 14.36,43.34 14.36,67.84l-112.72 0c0,-11.55 -1.8,-22.19 -5.52,-31.94 -3.59,-9.74 -9.23,-18.21 -16.67,-25.13 -7.56,-7.05 -16.93,-12.44 -28.21,-16.41 -11.29,-3.85 -24.49,-5.78 -39.75,-5.78 -14.88,0 -27.7,1.67 -38.6,4.88 -10.9,3.2 -19.88,7.82 -27.06,13.59 -7.06,5.64 -12.44,12.44 -16.16,20.26 -3.59,7.7 -5.39,16.03 -5.39,24.75 0,18.08 9.24,33.09 27.57,45.27 18.47,12.18 45.4,23.47 81.05,33.98 29.75,9.36 56.04,19.62 78.61,30.78 22.7,11.29 41.68,24.11 56.81,38.34 15.13,14.37 26.55,30.4 34.37,48.09 7.69,17.83 11.67,37.96 11.67,60.53 0,23.98 -4.75,45.4 -14.11,64.25 -9.36,18.72 -22.7,34.62 -40.01,47.58 -17.31,12.82 -38.21,22.69 -62.58,29.62 -24.36,6.92 -51.68,10.39 -81.69,10.39 -18.08,0 -36.03,-1.67 -54.11,-4.75 -18.08,-3.08 -35.27,-7.95 -51.68,-14.49 -16.42,-6.54 -31.68,-14.62 -45.66,-24.36 -13.97,-9.75 -26.16,-21.29 -36.67,-34.63 -10.39,-13.21 -18.47,-28.34 -24.37,-45.27 -5.9,-16.92 -8.85,-35.65 -8.85,-56.17l113.11 0c0,16.55 2.69,30.52 7.95,42.07 5.26,11.54 12.57,20.9 21.93,28.08 9.36,7.05 20.77,12.31 33.98,15.52 13.34,3.33 28.09,4.87 44.37,4.87 14.49,0 27.19,-1.54 37.96,-4.62 10.77,-3.2 19.62,-7.56 26.68,-12.95 6.92,-5.51 12.18,-12.18 15.51,-19.75 3.46,-7.69 5.13,-15.9 5.13,-24.62z"/>
   <polygon id="4" class="fil0" points="2632.06,414.84 2464.45,414.84 2464.45,870.6 2351.73,870.6 2351.73,414.84 2186.43,414.84 2186.43,323.54 2632.06,323.54 "/>
   <path class="fil0" d="M1331.15 1602.73c-3.08,27.83 -9.62,52.71 -19.62,74.77 -10,22.05 -23.47,40.65 -40.4,55.91 -16.92,15.39 -37.19,27.06 -60.78,35.14 -23.73,8.2 -50.53,12.31 -80.66,12.31 -31.04,0 -59.25,-5.9 -84.51,-17.7 -25.27,-11.8 -46.94,-28.47 -65.02,-50.14 -17.95,-21.67 -31.93,-47.71 -41.68,-77.97 -9.74,-30.27 -14.62,-63.86 -14.62,-100.67l0 -68.73c0,-36.94 4.88,-70.53 14.62,-100.93 9.75,-30.39 23.73,-56.42 41.94,-77.97 18.08,-21.54 40.14,-38.21 65.91,-50.14 25.78,-11.92 54.76,-17.82 86.82,-17.82 28.98,0 55.14,3.97 78.48,12.05 23.34,7.95 43.22,19.62 59.89,35.01 16.67,15.52 30.13,34.24 40.26,56.43 10.14,22.18 16.55,47.32 19.37,75.27l-46.68 0c-2.69,-22.06 -7.69,-41.68 -15,-59.12 -7.19,-17.44 -17.06,-32.06 -29.5,-43.73 -12.44,-11.79 -27.44,-20.9 -45.01,-27.05 -17.7,-6.29 -38.34,-9.49 -61.81,-9.49 -25.65,0 -48.35,5 -68.48,14.87 -20.01,9.88 -37.06,23.85 -51.04,41.94 -13.98,17.95 -24.75,39.75 -32.06,65.14 -7.44,25.39 -11.16,53.73 -11.16,84.77l0 69.5c0,30.01 3.47,57.71 10.52,83.23 7.05,25.39 17.31,47.32 30.78,65.66 13.59,18.46 30.26,32.83 50.01,43.08 19.75,10.26 42.45,15.39 67.97,15.39 48.34,0 84.76,-11.54 109.38,-34.75 24.5,-23.21 39.63,-57.96 45.4,-104.26l46.68 0z"/>
   <polygon id="1" class="fil0" points="1803.83,1265.72 1616.35,1265.72 1616.35,1773.29 1570.05,1773.29 1570.05,1265.72 1382.95,1265.72 1382.95,1226.23 1803.83,1226.23 "/>
   <path id="2" class="fil0" d="M2096.47 1545.67l-158.88 0 0 227.62 -46.68 0 0 -547.06 177.73 0c28.6,0 54.25,3.59 77.2,10.51 22.96,7.05 42.45,17.44 58.61,31.03 16.16,13.73 28.6,30.53 37.19,50.53 8.72,20.01 12.95,43.09 12.95,69.12 0,18.08 -2.69,35.01 -8.21,50.91 -5.51,15.9 -13.33,30.27 -23.34,43.09 -10,12.7 -21.93,23.72 -35.9,32.96 -13.85,9.36 -29.24,16.41 -46.04,21.41l136.83 232.63 0 4.87 -49.24 0 -132.22 -227.62zm-158.88 -39.5l141.57 0c21.29,0 40.01,-3.21 56.17,-9.75 16.16,-6.54 29.62,-15.26 40.39,-26.16 10.78,-10.9 18.85,-23.46 24.24,-37.96 5.39,-14.36 8.08,-29.36 8.08,-44.88 0,-18.72 -3.08,-35.65 -8.98,-50.65 -6.02,-15.14 -15,-27.83 -26.93,-38.35 -11.92,-10.51 -26.41,-18.59 -43.73,-24.23 -17.31,-5.65 -37.19,-8.47 -59.76,-8.47l-131.05 0 0 240.45z"/>
   <polygon id="3" class="fil0" points="2427.07,1734.18 2697.27,1734.18 2697.27,1773.29 2380.52,1773.29 2380.52,1226.23 2427.07,1226.23 "/>
   <path class="fil1" d="M192.87 1265.84c93.23,0 172.61,32.83 238.14,98.48 65.66,65.53 98.48,144.91 98.48,238.14l0 216.47c0,6.92 -2.3,12.69 -6.79,17.18 -4.49,4.49 -10.26,6.8 -17.19,6.8l-48.09 0c-7.05,0 -12.82,-2.31 -17.31,-6.8 -4.49,-4.49 -6.79,-10.26 -6.79,-17.18l0 -216.47c-93.23,0 -172.61,-32.83 -238.14,-98.48 -65.66,-65.53 -98.49,-144.91 -98.49,-238.14l96.18 0zm577.07 -96.18l96.18 0c0,86.17 -29.11,161.32 -87.2,225.44 -58.09,64.12 -129.65,100.67 -214.8,109.64 -16.03,-61.04 -45.65,-115.15 -88.74,-162.22 15,-26.03 32.83,-49.62 53.34,-70.66 20.52,-21.03 43.35,-39.11 68.36,-54.11 25.13,-15.01 52.45,-26.8 81.94,-35.27 29.5,-8.59 59.89,-12.82 90.92,-12.82z"/>
  </g>
 </g>
</svg>
