<?xml version="1.0" encoding="UTF-8"?>
<!DOCTYPE svg PUBLIC "-//W3C//DTD SVG 1.1//EN" "http://www.w3.org/Graphics/SVG/1.1/DTD/svg11.dtd">
<!-- Creator: CorelDRAW 2019 (64-Bit) -->
<svg xmlns="http://www.w3.org/2000/svg" xml:space="preserve" width="27.94mm" height="21.59mm" version="1.1" style="shape-rendering:geometricPrecision; text-rendering:geometricPrecision; image-rendering:optimizeQuality; fill-rule:evenodd; clip-rule:evenodd"
viewBox="0 0 2794 2159"
 xmlns:xlink="http://www.w3.org/1999/xlink">
 <defs>
  <style type="text/css">
   <![CDATA[
    .fil0 {fill:#99D985;fill-rule:nonzero}
   ]]>
  </style>
 </defs>
 <g id="Capa_x0020_1">
  <metadata id="CorelCorpID_0Corel-Layer"/>
  <path class="fil0" d="M1108.46 843.29c93.23,0 172.61,32.83 238.14,98.48 65.66,65.53 98.48,144.91 98.48,238.14l0 216.47c0,6.92 -2.3,12.69 -6.79,17.18 -4.49,4.49 -10.26,6.8 -17.19,6.8l-48.09 0c-7.05,0 -12.82,-2.31 -17.31,-6.8 -4.49,-4.49 -6.79,-10.26 -6.79,-17.18l0 -216.47c-93.23,0 -172.61,-32.83 -238.14,-98.48 -65.66,-65.53 -98.49,-144.91 -98.49,-238.14l96.18 0zm577.07 -96.18l96.18 0c0,86.17 -29.11,161.32 -87.2,225.44 -58.09,64.12 -129.65,100.67 -214.8,109.64 -16.03,-61.04 -45.65,-115.15 -88.74,-162.22 15,-26.03 32.83,-49.62 53.34,-70.66 20.52,-21.03 43.35,-39.11 68.36,-54.11 25.13,-15.01 52.45,-26.8 81.94,-35.27 29.5,-8.59 59.89,-12.82 90.92,-12.82z"/>
 </g>
</svg>
