<?xml version="1.0" encoding="UTF-8"?>
<!DOCTYPE svg PUBLIC "-//W3C//DTD SVG 1.1//EN" "http://www.w3.org/Graphics/SVG/1.1/DTD/svg11.dtd">
<!-- Creator: CorelDRAW 2019 (64-Bit) -->
<svg xmlns="http://www.w3.org/2000/svg" xml:space="preserve" width="27.94mm" height="21.59mm" version="1.1" style="shape-rendering:geometricPrecision; text-rendering:geometricPrecision; image-rendering:optimizeQuality; fill-rule:evenodd; clip-rule:evenodd"
viewBox="0 0 2794 2159"
 xmlns:xlink="http://www.w3.org/1999/xlink">
 <defs>
  <style type="text/css">
   <![CDATA[
    .fil0 {fill:#18531C;fill-rule:nonzero}
   ]]>
  </style>
 </defs>
 <g id="Capa_x0020_1">
  <metadata id="CorelCorpID_0Corel-Layer"/>
  <path class="fil0" d="M917.59 1186.64c-3.08,27.83 -9.62,52.71 -19.62,74.77 -10,22.05 -23.47,40.65 -40.4,55.91 -16.92,15.39 -37.19,27.06 -60.78,35.14 -23.73,8.2 -50.53,12.31 -80.66,12.31 -31.04,0 -59.25,-5.9 -84.51,-17.7 -25.27,-11.8 -46.94,-28.47 -65.02,-50.14 -17.95,-21.67 -31.93,-47.71 -41.68,-77.97 -9.74,-30.27 -14.62,-63.86 -14.62,-100.67l0 -68.73c0,-36.94 4.88,-70.53 14.62,-100.93 9.75,-30.39 23.73,-56.42 41.94,-77.97 18.08,-21.54 40.14,-38.21 65.91,-50.14 25.78,-11.92 54.76,-17.82 86.82,-17.82 28.98,0 55.14,3.97 78.48,12.05 23.34,7.95 43.22,19.62 59.89,35.01 16.67,15.52 30.13,34.24 40.26,56.43 10.14,22.18 16.55,47.32 19.37,75.27l-46.68 0c-2.69,-22.06 -7.69,-41.68 -15,-59.12 -7.19,-17.44 -17.06,-32.06 -29.5,-43.73 -12.44,-11.79 -27.44,-20.9 -45.01,-27.05 -17.7,-6.29 -38.34,-9.49 -61.81,-9.49 -25.65,0 -48.35,5 -68.48,14.87 -20.01,9.88 -37.06,23.85 -51.04,41.94 -13.98,17.95 -24.75,39.75 -32.06,65.14 -7.44,25.39 -11.16,53.73 -11.16,84.77l0 69.5c0,30.01 3.47,57.71 10.52,83.23 7.05,25.39 17.31,47.32 30.78,65.66 13.59,18.46 30.26,32.83 50.01,43.08 19.75,10.26 42.45,15.39 67.97,15.39 48.34,0 84.76,-11.54 109.38,-34.75 24.5,-23.21 39.63,-57.96 45.4,-104.26l46.68 0z"/>
  <polygon id="1" class="fil0" points="1390.27,849.63 1202.79,849.63 1202.79,1357.2 1156.49,1357.2 1156.49,849.63 969.39,849.63 969.39,810.14 1390.27,810.14 "/>
  <path id="2" class="fil0" d="M1682.91 1129.58l-158.88 0 0 227.62 -46.68 0 0 -547.06 177.73 0c28.6,0 54.25,3.59 77.2,10.51 22.96,7.05 42.45,17.44 58.61,31.03 16.16,13.73 28.6,30.53 37.19,50.53 8.72,20.01 12.95,43.09 12.95,69.12 0,18.08 -2.69,35.01 -8.21,50.91 -5.51,15.9 -13.33,30.27 -23.34,43.09 -10,12.7 -21.93,23.72 -35.9,32.96 -13.85,9.36 -29.24,16.41 -46.04,21.41l136.83 232.63 0 4.87 -49.24 0 -132.22 -227.62zm-158.88 -39.5l141.57 0c21.29,0 40.01,-3.21 56.17,-9.75 16.16,-6.54 29.62,-15.26 40.39,-26.16 10.78,-10.9 18.85,-23.46 24.24,-37.96 5.39,-14.36 8.08,-29.36 8.08,-44.88 0,-18.72 -3.08,-35.65 -8.98,-50.65 -6.02,-15.14 -15,-27.83 -26.93,-38.35 -11.92,-10.51 -26.41,-18.59 -43.73,-24.23 -17.31,-5.65 -37.19,-8.47 -59.76,-8.47l-131.05 0 0 240.45z"/>
  <polygon id="3" class="fil0" points="2013.51,1318.09 2283.71,1318.09 2283.71,1357.2 1966.96,1357.2 1966.96,810.14 2013.51,810.14 "/>
 </g>
</svg>
